# xmcd
#
# Track frame offsets:
#	150
#	16128
#	31171
#	42679
#	59419
#	72567
#	85257
#	100159
#	112793
#	127674
#
# Disc length: 1906 seconds
# Revision: 0
# Processed by: cddbd v1.5.2PL0 Copyright (c) Steve Scherf et al.
# Submitted via: dBpowerAMP V12.0
#
DISCID=7a07700a
DTITLE=Gloria Jean - Windmills and Cornfields
DYEAR=1900
DGENRE=Country
TTITLE0=Windmills and Cornfields
TTITLE1=Is Fort Worth Worth It?
TTITLE2=Rodeo Lady
TTITLE3=Close The Door
TTITLE4=A Fool Such as I
TTITLE5=Somebody Led Me Away
TTITLE6=Winter Texan Song
TTITLE7=Another Man Loved Me
TTITLE8=One Of The Guys
TTITLE9=God Bless America
EXTD=
EXTT0=
EXTT1=
EXTT2=
EXTT3=
EXTT4=
EXTT5=
EXTT6=
EXTT7=
EXTT8=
EXTT9=
PLAYORDER=
